<?xml version="1.0" standalone="no"?>
<!DOCTYPE svg PUBLIC "-//W3C//DTD SVG 20010904//EN"
 "http://www.w3.org/TR/2001/REC-SVG-20010904/DTD/svg10.dtd">
<svg version="1.0" xmlns="http://www.w3.org/2000/svg"
 width="847.000000pt" height="847.000000pt" viewBox="0 0 847.000000 847.000000"
 preserveAspectRatio="xMidYMid meet">
<metadata>
Created by potrace 1.14, written by Peter Selinger 2001-2017
</metadata>
<g transform="translate(0.000000,847.000000) scale(0.100000,-0.100000)"
fill="#000000" stroke="none">
<path d="M4209 8111 c-78 -67 -314 -304 -388 -390 -34 -40 -90 -101 -123 -135
-33 -33 -72 -77 -86 -96 -14 -19 -34 -42 -43 -52 -9 -9 -34 -38 -55 -65 -21
-26 -54 -64 -71 -83 -18 -19 -33 -41 -33 -47 0 -7 -4 -13 -8 -13 -8 0 -170
-201 -308 -381 -33 -42 -97 -126 -144 -187 -47 -61 -92 -120 -100 -132 -14
-21 -37 -50 -60 -77 -5 -7 -10 -16 -10 -20 0 -4 -18 -28 -40 -51 -22 -24 -40
-47 -40 -51 0 -4 -12 -21 -26 -37 -14 -16 -32 -41 -40 -56 -8 -16 -19 -28 -24
-28 -5 0 -11 -8 -15 -19 -10 -34 -41 -62 -61 -55 -15 4 -16 4 -5 -4 16 -11 7
-47 -10 -37 -6 4 -9 1 -7 -6 4 -21 -33 -71 -48 -65 -7 3 -16 0 -20 -6 -5 -7
-2 -8 5 -3 9 5 12 2 9 -11 -2 -11 -11 -17 -19 -16 -8 2 -11 0 -7 -3 12 -12
-11 -45 -26 -39 -8 3 -17 1 -21 -5 -3 -7 0 -8 9 -5 23 9 19 -7 -10 -41 -14
-16 -35 -45 -46 -65 -12 -19 -28 -39 -35 -43 -7 -5 -11 -12 -8 -18 4 -5 2 -9
-4 -9 -5 0 -21 -18 -34 -40 -18 -31 -26 -37 -36 -27 -10 9 -11 9 -6 -5 7 -19
-33 -80 -47 -72 -5 3 -8 2 -7 -3 4 -16 -21 -64 -31 -58 -6 3 -7 -1 -4 -9 4
-11 -2 -19 -17 -25 -13 -6 -17 -10 -9 -11 13 0 13 -2 1 -9 -8 -5 -20 -7 -28
-4 -7 3 -13 0 -13 -7 0 -6 5 -8 10 -5 19 12 10 -12 -23 -58 -19 -26 -37 -44
-41 -40 -4 4 -4 0 -1 -9 4 -11 -2 -17 -21 -22 -20 -5 -24 -10 -15 -16 8 -4 10
-13 6 -19 -5 -9 -11 -9 -23 1 -15 11 -15 11 -5 -2 15 -20 1 -46 -18 -34 -12 6
-12 5 -1 -8 11 -13 9 -17 -13 -22 -14 -4 -23 -11 -20 -16 4 -6 -1 -13 -10 -16
-11 -5 -13 -9 -5 -14 7 -5 6 -11 -6 -21 -11 -9 -15 -9 -10 -2 5 9 2 11 -9 7
-11 -5 -13 -10 -5 -19 8 -10 8 -15 -1 -21 -8 -5 -10 -3 -5 7 4 8 -2 3 -13 -11
-12 -14 -25 -30 -31 -37 -5 -7 -10 -21 -10 -32 0 -15 -5 -19 -17 -14 -10 4
-14 2 -9 -5 3 -6 2 -13 -3 -16 -5 -3 -11 -20 -15 -38 -3 -19 -16 -39 -29 -47
l-22 -14 20 24 c16 19 17 21 2 10 -24 -19 -45 -56 -25 -46 7 3 5 0 -5 -8 -10
-9 -18 -19 -18 -24 -1 -4 -3 -10 -6 -13 -4 -3 -3 1 1 8 4 6 2 12 -3 12 -6 0
-11 -6 -11 -14 0 -7 -6 -19 -14 -26 -8 -6 -12 -18 -9 -26 3 -9 0 -14 -8 -12
-9 2 -13 -4 -11 -16 2 -10 0 -16 -5 -13 -4 3 -17 -7 -27 -22 l-20 -26 24 20
23 20 -18 -30 c-10 -16 -36 -47 -59 -68 -22 -21 -34 -36 -26 -34 8 2 12 2 8 0
-5 -3 -8 -12 -8 -21 0 -13 -2 -14 -9 -3 -6 9 -11 10 -15 2 -4 -6 -5 -15 -1
-20 3 -5 0 -13 -6 -17 -8 -5 -9 -3 -4 7 8 12 6 12 -8 0 -18 -15 -23 -26 -7
-16 6 3 10 -1 10 -9 0 -9 -7 -16 -15 -16 -8 0 -15 -7 -15 -15 0 -18 -49 -91
-60 -88 -4 1 -7 -5 -6 -15 0 -9 -5 -16 -11 -15 -7 2 -12 0 -11 -5 4 -13 -34
-82 -52 -95 -10 -7 -17 -14 -16 -17 1 -5 -113 -179 -124 -190 -3 -3 -61 -89
-130 -192 -68 -104 -128 -188 -132 -188 -4 0 -8 -4 -8 -9 0 -12 -61 -105 -72
-109 -4 -2 -8 -9 -8 -16 0 -7 -9 -21 -20 -31 -11 -10 -20 -24 -20 -32 0 -7 -4
-13 -8 -13 -11 0 -147 -209 -309 -477 -59 -98 -74 -130 -71 -155 3 -31 7 -34
63 -50 95 -27 136 -44 128 -53 -5 -5 1 -3 11 5 17 13 19 13 14 0 -4 -12 3 -15
31 -15 22 0 35 -5 34 -11 -1 -7 6 -10 20 -7 18 4 19 3 7 -6 -19 -14 0 -14 35
-1 23 9 26 8 21 -5 -3 -9 -2 -14 3 -10 5 3 12 -1 14 -7 3 -7 6 -5 6 6 1 17 16
15 16 -2 0 -14 16 -32 28 -32 6 0 2 7 -9 15 -18 15 -17 16 15 9 56 -10 106
-35 92 -44 -8 -5 -9 -10 -3 -14 5 -3 13 2 16 11 4 10 10 13 14 8 4 -6 26 -19
49 -30 41 -19 55 -35 31 -35 -6 0 -8 -3 -5 -6 4 -4 13 -1 21 5 10 8 16 9 21 1
3 -5 1 -10 -6 -10 -7 0 -9 -3 -6 -6 4 -4 12 -2 19 3 9 7 29 3 66 -14 49 -23
52 -26 35 -39 -17 -14 -16 -14 4 -5 12 6 30 11 40 11 15 0 16 -2 3 -11 -12 -8
-12 -9 5 -7 23 3 136 -42 130 -52 -2 -3 5 -6 15 -7 29 -2 91 -34 85 -43 -3 -5
0 -12 6 -16 8 -4 9 -3 5 4 -10 17 9 15 45 -3 16 -9 27 -20 24 -24 -2 -5 3 -15
13 -22 15 -13 16 -12 3 4 -7 9 -10 17 -6 17 21 0 85 -24 85 -32 0 -5 -10 -4
-23 2 -21 11 -21 11 -3 -4 13 -10 23 -13 29 -7 13 13 189 -76 440 -221 38 -22
65 -44 61 -50 -4 -7 -9 -5 -15 3 -6 10 -9 10 -9 2 0 -17 14 -23 30 -13 15 9
40 3 40 -11 0 -4 -8 -6 -17 -3 -15 5 -15 4 -3 -4 9 -7 18 -8 26 -1 9 7 27 0
62 -25 27 -20 52 -36 56 -36 7 0 116 -71 116 -76 0 -8 -32 5 -48 19 -17 15
-20 16 -25 3 -4 -11 -1 -13 10 -9 12 5 14 3 8 -7 -5 -8 -4 -11 3 -6 6 3 13 2
16 -3 4 -5 20 -7 37 -4 28 4 30 3 24 -19 -4 -15 -3 -18 3 -10 9 13 42 7 42 -8
0 -4 14 -13 30 -20 35 -15 40 -30 7 -24 l-22 5 23 -10 c12 -6 22 -15 22 -21 0
-5 5 -10 11 -10 8 0 8 5 -1 15 -10 12 -10 15 1 15 21 -1 52 -27 45 -39 -4 -5
-1 -13 5 -17 8 -4 9 -3 5 4 -9 15 -3 15 29 0 14 -6 25 -15 25 -20 0 -12 -14
-10 -28 4 -7 7 -12 10 -12 7 0 -3 12 -16 27 -28 18 -17 24 -19 20 -7 -4 10 -1
16 9 16 8 0 17 -7 20 -15 4 -8 10 -13 14 -10 4 3 14 -2 21 -11 10 -13 10 -17
-2 -25 -10 -8 -9 -9 7 -4 15 4 33 -4 61 -27 22 -18 67 -52 99 -76 101 -73 98
-70 86 -85 -9 -10 -8 -14 3 -14 8 0 12 4 9 9 -8 13 9 9 30 -7 10 -7 16 -17 13
-22 -3 -4 1 -17 9 -28 8 -10 14 -14 14 -9 0 6 -5 15 -12 22 -20 20 0 13 42
-14 22 -15 37 -30 34 -35 -3 -5 -11 -6 -17 -2 -7 4 -6 0 2 -10 7 -9 19 -17 25
-17 6 0 4 5 -4 10 -12 8 -11 10 6 10 12 0 24 -7 28 -15 3 -8 1 -14 -3 -12 -8
2 -11 -3 -11 -19 0 -4 7 -1 16 7 9 7 18 9 22 3 9 -12 89 -74 96 -74 3 0 14 -8
24 -18 10 -9 40 -37 68 -62 27 -25 53 -51 58 -57 12 -21 -12 -14 -34 9 -11 12
-20 17 -20 10 0 -17 45 -43 62 -37 18 7 74 -37 83 -65 4 -11 11 -20 16 -20 5
0 29 -17 51 -37 61 -55 215 -203 246 -237 15 -15 93 -95 175 -177 81 -82 147
-153 147 -159 0 -6 3 -9 8 -7 4 2 15 -4 25 -15 9 -10 14 -18 10 -18 -3 0 7
-11 23 -25 16 -14 33 -25 37 -25 5 0 5 -5 1 -11 -5 -8 3 -10 23 -7 24 3 30 1
28 -11 -2 -9 -4 -18 -4 -21 -1 -3 -6 2 -11 10 -8 13 -10 13 -10 -1 0 -12 8
-16 29 -15 16 0 27 4 24 9 -2 4 -10 5 -16 1 -7 -3 -3 2 8 11 11 9 19 22 17 28
-2 7 -1 9 3 5 7 -6 37 23 90 86 32 39 48 46 39 19 -5 -14 -4 -15 4 -4 5 7 16
18 23 23 11 8 10 9 -3 4 -10 -3 -18 -2 -18 2 0 12 48 63 62 66 18 3 55 25 43
26 -6 0 -16 -5 -23 -12 -9 -9 -12 -9 -12 0 0 15 35 34 45 24 5 -4 5 -2 2 4 -3
6 16 35 44 65 39 42 45 46 28 19 -17 -27 -18 -31 -3 -15 10 11 28 28 39 38 11
10 14 16 8 12 -7 -3 -13 -1 -13 4 0 6 10 11 23 11 18 0 19 2 7 10 -14 9 -6 15
15 10 5 -1 7 2 2 6 -4 4 3 18 15 31 25 27 47 31 27 6 -13 -16 -12 -17 3 -4 10
7 15 17 12 22 -3 5 0 9 6 9 6 0 15 11 20 25 6 15 15 23 23 19 8 -3 20 3 28 13
13 16 12 17 -3 4 -12 -8 -18 -9 -18 -2 0 6 11 13 24 17 23 5 106 86 106 102 0
10 38 42 50 42 6 0 10 5 10 11 0 5 5 7 10 4 6 -3 10 1 10 9 0 17 34 39 44 28
4 -3 4 1 1 9 -7 18 29 54 44 44 6 -3 11 1 11 9 0 15 38 42 52 38 4 -1 4 6 1
15 -5 12 -2 15 10 10 9 -3 19 -1 23 5 5 7 2 8 -7 4 -8 -4 -5 0 5 8 11 9 23 16
26 16 4 0 13 12 20 26 9 16 20 24 32 21 9 -3 23 2 30 12 12 15 11 15 -7 1 -20
-15 -20 -14 -1 8 15 17 22 19 28 10 6 -10 8 -9 8 4 0 20 28 50 40 43 5 -3 14
4 20 15 6 11 15 18 21 15 5 -4 8 -3 7 2 -2 4 0 8 3 8 4 0 15 10 25 22 11 12
26 23 34 25 8 2 19 12 26 23 6 11 16 19 22 18 6 -2 16 6 22 17 6 11 17 20 24
20 8 0 16 7 20 15 3 8 10 14 15 13 5 -2 17 6 26 17 9 11 14 13 10 5 -4 -8 6
-1 20 15 15 17 24 24 20 16 -5 -9 1 -8 19 4 25 17 38 34 14 19 -7 -4 -8 -3 -4
4 4 7 13 12 21 12 7 0 15 7 19 15 3 8 12 15 21 15 8 0 15 5 15 10 0 6 6 10 14
10 8 0 17 7 20 16 3 8 11 12 16 9 6 -4 25 7 41 25 18 19 37 29 45 26 9 -3 12
-1 9 4 -3 6 5 14 19 19 13 6 29 18 35 28 6 10 11 14 11 9 0 -5 9 -1 20 9 15
14 20 15 20 4 1 -10 3 -9 10 3 6 10 19 15 31 13 18 -4 19 -2 7 12 -9 12 -9 15
0 9 7 -4 12 -2 12 4 0 6 4 9 9 6 4 -3 16 3 26 14 10 11 22 20 27 20 10 0 70
41 80 55 5 7 8 7 8 0 0 -5 6 -3 13 7 7 9 22 18 32 20 11 1 26 9 33 16 8 7 18
10 23 7 5 -4 6 2 2 12 -3 10 -3 15 2 11 4 -4 15 -2 23 5 13 10 14 9 7 -2 -5
-10 -4 -12 3 -7 7 4 12 14 12 23 0 9 3 13 6 10 8 -7 64 23 64 35 0 4 10 5 21
3 12 -3 19 -2 15 2 -3 3 8 15 24 25 35 21 44 23 34 6 -5 -7 -3 -8 5 -4 7 5 10
10 7 14 -6 5 24 31 37 32 5 0 5 -5 1 -12 -4 -7 -3 -8 5 -4 6 4 9 12 6 17 -6 8
8 13 28 10 4 0 7 3 7 7 0 4 20 16 45 26 25 11 45 23 45 28 0 5 4 7 9 4 5 -4
11 -2 13 3 1 5 10 11 18 13 8 2 17 6 20 9 3 3 24 14 47 26 31 15 45 17 54 9 9
-8 10 -8 5 1 -8 15 20 43 45 43 10 0 19 5 19 11 0 6 7 9 15 5 8 -3 15 -2 15 2
0 9 102 58 112 55 5 -2 8 2 8 8 0 5 5 7 10 4 6 -3 10 -1 10 5 0 6 4 9 9 5 5
-3 13 0 16 6 4 5 13 8 21 5 8 -3 14 -1 14 4 0 5 13 16 30 25 33 17 44 19 36 6
-4 -5 5 -4 19 2 14 7 25 15 25 20 0 4 7 7 15 7 8 0 15 5 15 10 0 7 7 7 20 0
11 -6 17 -16 14 -22 -5 -7 -2 -8 5 -3 9 5 10 10 2 18 -15 15 -14 30 1 25 7 -3
19 1 26 9 8 7 18 11 23 8 5 -4 9 -1 9 6 0 7 10 9 24 7 19 -4 23 -1 18 10 -4
11 -1 14 11 9 9 -3 17 -2 17 4 0 6 4 8 9 4 5 -3 13 0 16 6 4 5 13 8 21 5 8 -3
17 0 20 7 2 7 16 14 31 15 15 1 35 9 45 19 10 9 18 12 18 7 0 -5 5 -2 10 6 8
13 10 13 10 -2 0 -9 4 -19 8 -22 5 -3 8 5 8 17 -1 13 4 21 12 20 6 -2 12 2 12
7 0 7 7 7 21 -1 15 -8 19 -8 15 0 -4 7 1 11 12 11 11 0 22 7 26 15 3 8 12 12
20 9 8 -3 28 2 45 10 17 9 32 16 33 15 3 -1 22 6 103 37 11 4 31 9 45 11 47 8
53 24 29 79 -12 27 -44 83 -72 126 -27 42 -49 79 -48 83 2 4 -1 11 -6 14 -10
6 -83 114 -96 141 -4 8 -25 42 -47 75 -22 33 -47 75 -56 93 -9 17 -20 32 -25
32 -5 0 -9 7 -9 15 0 8 -4 15 -10 15 -5 0 -10 6 -10 13 0 7 -8 22 -18 33 -26
28 -132 184 -132 194 0 5 -4 10 -8 12 -5 2 -67 91 -137 198 -71 107 -131 197
-135 200 -19 15 -50 71 -45 80 4 6 2 9 -5 8 -6 -2 -18 10 -28 27 -9 16 -24 37
-33 47 -9 10 -22 30 -30 45 -8 15 -20 34 -27 43 -8 8 -28 37 -45 63 -18 27
-77 113 -132 193 -55 79 -119 172 -142 207 -23 34 -63 91 -88 127 -113 158
-155 221 -155 230 0 6 -4 10 -10 10 -5 0 -43 51 -84 113 -90 134 -129 190
-167 239 -19 24 -27 43 -22 54 5 13 3 16 -10 11 -9 -3 -17 -2 -17 2 0 5 -9 20
-20 33 -19 22 -78 101 -110 148 -8 12 -25 33 -37 46 -13 14 -23 32 -23 40 0 7
-4 14 -8 14 -5 0 -22 19 -40 43 -66 87 -94 123 -121 152 -15 17 -48 62 -74
100 -40 59 -85 121 -127 172 -6 7 -10 16 -10 20 0 4 -16 26 -35 47 -19 22 -35
43 -35 48 0 4 -14 23 -31 40 -17 18 -38 45 -47 60 -9 16 -20 28 -24 28 -4 0
-8 7 -8 15 0 8 -3 15 -7 15 -5 0 -19 17 -33 37 -14 21 -30 45 -37 53 -7 8 -35
44 -64 80 -28 36 -90 117 -137 179 -76 103 -100 132 -164 202 -10 10 -18 22
-18 25 0 4 -12 19 -27 34 -16 15 -35 37 -43 49 -8 13 -24 33 -35 45 -11 12
-38 44 -60 71 -80 98 -333 381 -422 473 -24 24 -43 49 -43 55 0 15 -100 109
-154 145 l-43 29 -54 -46z m741 -7154 c0 -2 -12 -14 -27 -28 l-26 -24 19 27
c16 23 34 36 34 25z m-710 -567 c0 -5 -2 -10 -4 -10 -3 0 -8 5 -11 10 -3 6 -1
10 4 10 6 0 11 -4 11 -10z m56 -23 c4 -3 -4 -4 -16 -2 -30 6 -40 16 -12 12 12
-2 24 -6 28 -10z"/>
<path d="M3289 7153 c-13 -16 -12 -17 4 -4 9 7 17 15 17 17 0 8 -8 3 -21 -13z"/>
<path d="M3200 7040 c-6 -11 -8 -20 -6 -20 3 0 10 9 16 20 6 11 8 20 6 20 -3
0 -10 -9 -16 -20z"/>
<path d="M3166 6993 c-6 -14 -5 -15 5 -6 7 7 10 15 7 18 -3 3 -9 -2 -12 -12z"/>
<path d="M3081 6891 c-24 -33 -28 -56 -5 -26 20 26 36 55 30 55 -3 0 -14 -13
-25 -29z"/>
<path d="M2966 6745 c-9 -26 -7 -32 5 -12 6 10 9 21 6 23 -2 3 -7 -2 -11 -11z"/>
<path d="M2935 6699 c-4 -6 -5 -12 -2 -15 2 -3 7 2 10 11 7 17 1 20 -8 4z"/>
<path d="M2756 6465 c-9 -14 -23 -37 -32 -52 l-16 -28 21 25 c23 26 54 80 47
80 -2 0 -11 -11 -20 -25z"/>
<path d="M2635 6300 c-10 -11 -15 -20 -11 -20 11 0 39 30 34 36 -3 2 -13 -5
-23 -16z"/>
<path d="M2605 6259 c-11 -16 -1 -19 13 -3 7 8 8 14 3 14 -5 0 -13 -5 -16 -11z"/>
<path d="M2577 6224 c-4 -4 -7 -14 -7 -23 0 -11 3 -12 11 -4 6 6 10 16 7 23
-2 6 -7 8 -11 4z"/>
<path d="M2170 5644 c0 -8 5 -12 10 -9 6 4 8 11 5 16 -9 14 -15 11 -15 -7z"/>
<path d="M2010 5415 c-7 -9 -8 -15 -2 -15 5 0 12 7 16 15 3 8 4 15 2 15 -2 0
-9 -7 -16 -15z"/>
<path d="M1545 4739 c-4 -6 -5 -12 -2 -15 2 -3 7 2 10 11 7 17 1 20 -8 4z"/>
<path d="M850 2710 c8 -5 20 -10 25 -10 6 0 3 5 -5 10 -8 5 -19 10 -25 10 -5
0 -3 -5 5 -10z"/>
<path d="M920 2676 c0 -2 7 -9 15 -16 13 -11 14 -10 9 4 -5 14 -24 23 -24 12z"/>
<path d="M1067 2609 c7 -7 15 -10 18 -7 3 3 -2 9 -12 12 -14 6 -15 5 -6 -5z"/>
<path d="M7290 2510 c-9 -6 -10 -10 -3 -10 6 0 15 5 18 10 8 12 4 12 -15 0z"/>
<path d="M1364 2478 c-4 -7 -4 -10 1 -6 4 4 15 2 24 -5 14 -11 14 -10 2 6 -16
20 -18 21 -27 5z"/>
<path d="M1470 2436 c0 -2 8 -10 18 -17 15 -13 16 -12 3 4 -13 16 -21 21 -21
13z"/>
<path d="M1620 2364 c0 -7 52 -25 57 -20 2 2 -10 8 -26 14 -17 6 -31 9 -31 6z"/>
<path d="M1730 2306 c0 -2 9 -6 20 -9 11 -3 20 -1 20 4 0 5 -9 9 -20 9 -11 0
-20 -2 -20 -4z"/>
<path d="M1799 2278 c15 -21 31 -23 31 -6 0 6 -3 8 -7 5 -3 -4 -13 -1 -22 6
-14 11 -14 10 -2 -5z"/>
<path d="M1844 2248 c-4 -7 -4 -10 1 -6 4 4 15 2 24 -5 14 -11 14 -10 2 6 -16
20 -18 21 -27 5z"/>
<path d="M1910 2216 c0 -2 8 -10 18 -17 15 -13 16 -12 3 4 -13 16 -21 21 -21
13z"/>
<path d="M1984 2171 c20 -22 26 -25 26 -13 0 4 -10 13 -22 21 -23 14 -23 14
-4 -8z"/>
<path d="M2193 2050 c2 -8 9 -15 16 -15 6 0 16 -7 21 -15 5 -8 10 -10 10 -4 0
6 -7 17 -15 24 -8 7 -15 9 -15 4 0 -5 -5 -2 -11 6 -9 13 -10 13 -6 0z"/>
<path d="M2253 2015 c0 -8 4 -15 9 -15 4 0 8 4 8 9 0 6 -4 12 -8 15 -5 3 -9
-1 -9 -9z"/>
<path d="M2447 1889 c7 -9 10 -19 6 -23 -4 -4 1 -4 10 0 10 3 17 7 15 8 -2 1
-12 8 -23 16 -18 14 -19 13 -8 -1z"/>
<path d="M2688 1723 c7 -3 16 -2 19 1 4 3 -2 6 -13 5 -11 0 -14 -3 -6 -6z"/>
<path d="M5820 1670 c0 -5 5 -10 11 -10 5 0 7 5 4 10 -3 6 -8 10 -11 10 -2 0
-4 -4 -4 -10z"/>
<path d="M2780 1651 c0 -13 39 -35 48 -27 3 3 0 6 -6 6 -6 0 -18 7 -26 16 -9
8 -16 11 -16 5z"/>
<path d="M2838 1603 c7 -3 16 -2 19 1 4 3 -2 6 -13 5 -11 0 -14 -3 -6 -6z"/>
<path d="M2870 1586 c0 -3 15 -15 33 -27 23 -17 28 -18 18 -6 -14 18 -51 42
-51 33z"/>
<path d="M2940 1530 c0 -5 5 -10 11 -10 5 0 7 5 4 10 -3 6 -8 10 -11 10 -2 0
-4 -4 -4 -10z"/>
<path d="M3065 1430 c3 -5 8 -10 11 -10 2 0 4 5 4 10 0 6 -5 10 -11 10 -5 0
-7 -4 -4 -10z"/>
<path d="M3235 1304 c17 -16 38 -37 47 -47 9 -9 19 -14 21 -10 2 5 -19 25 -47
47 -33 25 -41 29 -21 10z"/>
<path d="M5309 1273 c-13 -16 -12 -17 4 -4 9 7 17 15 17 17 0 8 -8 3 -21 -13z"/>
<path d="M3336 1221 c-3 -5 1 -11 9 -14 9 -4 12 -1 8 9 -6 16 -10 17 -17 5z"/>
<path d="M3456 1117 c3 -10 9 -15 12 -12 3 3 0 11 -7 18 -10 9 -11 8 -5 -6z"/>
<path d="M3476 1092 c-3 -5 4 -18 17 -28 21 -19 21 -19 7 0 -8 11 -13 21 -12
23 2 3 1 7 -1 9 -3 3 -8 1 -11 -4z"/>
<path d="M3560 996 c0 -2 12 -12 28 -21 l27 -18 -19 21 c-17 20 -36 29 -36 18z"/>
<path d="M3620 964 c0 -5 7 -18 15 -28 8 -11 15 -16 15 -10 0 5 -7 18 -15 28
-8 11 -15 16 -15 10z"/>
<path d="M3666 907 c3 -10 9 -15 12 -12 3 3 0 11 -7 18 -10 9 -11 8 -5 -6z"/>
<path d="M3711 854 c0 -11 3 -14 6 -6 3 7 2 16 -1 19 -3 4 -6 -2 -5 -13z"/>
<path d="M3748 820 c20 -20 25 -19 17 2 -3 8 -12 15 -20 15 -12 0 -11 -4 3
-17z"/>
<path d="M3780 790 c0 -6 4 -9 10 -5 5 3 16 -8 25 -25 8 -16 18 -30 21 -30 3
0 -2 14 -13 32 -19 32 -43 48 -43 28z"/>
<path d="M3852 718 c2 -6 10 -13 16 -14 7 -1 8 0 2 3 -5 2 -8 9 -4 14 3 5 0 9
-6 9 -7 0 -10 -5 -8 -12z"/>
<path d="M3913 656 c10 -8 25 -23 33 -33 14 -17 14 -16 4 4 -6 13 -20 27 -33
33 -20 10 -21 10 -4 -4z"/>
<path d="M4630 629 c0 -5 5 -7 10 -4 6 3 10 8 10 11 0 2 -4 4 -10 4 -5 0 -10
-5 -10 -11z"/>
<path d="M3970 601 c0 -10 19 -25 25 -20 1 2 -3 10 -11 17 -8 7 -14 8 -14 3z"/>
<path d="M4010 550 c0 -5 5 -10 10 -10 6 0 10 5 10 10 0 6 -4 10 -10 10 -5 0
-10 -4 -10 -10z"/>
<path d="M4530 529 c0 -5 5 -7 10 -4 6 3 10 8 10 11 0 2 -4 4 -10 4 -5 0 -10
-5 -10 -11z"/>
<path d="M4050 510 c0 -5 9 -14 20 -20 11 -6 20 -9 20 -8 0 2 -9 11 -20 21
-11 9 -20 13 -20 7z"/>
<path d="M4090 466 c0 -2 8 -10 18 -17 15 -13 16 -12 3 4 -13 16 -21 21 -21
13z"/>
<path d="M4419 403 c-13 -17 -13 -17 6 -3 11 8 22 16 24 17 2 2 0 3 -6 3 -6 0
-17 -8 -24 -17z"/>
<path d="M4390 369 c0 -5 5 -7 10 -4 6 3 10 8 10 11 0 2 -4 4 -10 4 -5 0 -10
-5 -10 -11z"/>
<path d="M4362 340 c-7 -11 -8 -20 -3 -20 9 0 24 30 18 36 -1 2 -8 -6 -15 -16z"/>
</g>
</svg>
